<svg width="25" height="25" viewBox="0 0 25 25" fill="none" xmlns="http://www.w3.org/2000/svg">
<path d="M20.0198 3.09308H17.8856C17.6025 3.09308 17.3311 3.20551 17.131 3.40564C16.9309 3.60576 16.8184 3.8772 16.8184 4.16022V21.3622C16.8184 21.8763 17.2352 22.2931 17.7493 22.2931H20.156C20.6702 22.2931 21.087 21.8763 21.087 21.3622V4.16022C21.087 3.8772 20.9745 3.60576 20.7744 3.40564C20.5743 3.20551 20.3028 3.09308 20.0198 3.09308ZM13.617 9.49592H11.4828C11.1998 9.49592 10.9283 9.60836 10.7282 9.80848C10.5281 10.0086 10.4157 10.28 10.4157 10.5631V21.3622C10.4157 21.8763 10.8324 22.2931 11.3466 22.2931H13.7533C14.2674 22.2931 14.6842 21.8763 14.6842 21.3622V10.5631C14.6842 10.28 14.5717 10.0086 14.3716 9.80848C14.1715 9.60836 13.9001 9.49592 13.617 9.49592ZM7.21427 15.8988H5.08001C4.79699 15.8988 4.52556 16.0112 4.32543 16.2113C4.12531 16.4115 4.01288 16.6829 4.01288 16.9659V21.3622C4.01288 21.8763 4.42966 22.2931 4.94379 22.2931H7.35049C7.86462 22.2931 8.2814 21.8763 8.2814 21.3622V16.9659C8.2814 16.6829 8.16897 16.4115 7.96884 16.2113C7.76872 16.0112 7.49729 15.8988 7.21427 15.8988Z" fill="#719DB5"/>
</svg>
