<svg width="16" height="16" viewBox="0 0 16 16" fill="none" xmlns="http://www.w3.org/2000/svg">
<g clip-path="url(#clip0_124_4390)">
<path d="M15.755 9.9351C15.3723 11.4703 14.543 12.8575 13.3719 13.9213C12.2008 14.9852 10.7406 15.6778 9.17581 15.9117C7.61104 16.1455 6.01207 15.9101 4.58111 15.2352C3.15015 14.5602 1.95149 13.4761 1.13671 12.1199C0.321926 10.7637 -0.0723671 9.1963 0.00369324 7.61598C0.0797535 6.03567 0.62275 4.5134 1.56401 3.2417C2.50527 1.97001 3.80251 1.00601 5.29168 0.471618C6.78084 -0.0627713 8.39503 -0.143545 9.93011 0.239513C11.9881 0.753058 13.7579 2.06297 14.8502 3.88117C15.9425 5.69937 16.268 7.87698 15.755 9.9351Z" fill="#F7931A"/>
<path d="M11.4054 6.88508C11.5598 5.85681 10.7735 5.30408 9.69761 4.93532L10.0464 3.54231L9.19447 3.33113L8.85452 4.68736C8.63055 4.63176 8.40057 4.57938 8.1718 4.52739L8.51416 3.16235L7.66268 2.95117L7.3135 4.3438C7.12793 4.3018 6.94596 4.26021 6.76958 4.21661V4.21222L5.59453 3.92026L5.36775 4.82574C5.36775 4.82574 6.00007 4.96972 5.98647 4.97892C6.10412 4.99261 6.21168 5.05199 6.28597 5.14423C6.36026 5.23648 6.39532 5.35421 6.38362 5.47207L5.98608 7.05906C6.01629 7.06648 6.04595 7.07599 6.07487 7.08747L5.98489 7.06548L5.42775 9.28839C5.40246 9.36664 5.34713 9.43164 5.27394 9.46913C5.20075 9.50663 5.11568 9.51355 5.0374 9.48837C5.0458 9.50077 4.41829 9.33477 4.41829 9.33477L3.99512 10.3055L5.1038 10.5806C5.31017 10.6322 5.51214 10.6858 5.71131 10.7366L5.35896 12.1456L6.21005 12.3568L6.5592 10.963C6.79158 11.0258 7.01755 11.083 7.23912 11.1382L6.89117 12.5256L7.74306 12.7368L8.09541 11.3305C9.54843 11.6041 10.6407 11.4937 11.1006 10.1859C11.4714 9.13282 11.0822 8.52567 10.3179 8.12972C10.6113 8.0714 10.8771 7.91764 11.0738 7.69242C11.2706 7.46721 11.3873 7.1832 11.4058 6.88469L11.4054 6.88508ZM9.45884 9.60156C9.19567 10.6546 7.41389 10.0851 6.83637 9.94271L7.3043 8.07614C7.88183 8.21972 9.73401 8.5037 9.45884 9.60156ZM9.72241 6.8699C9.48244 7.82778 7.99942 7.34104 7.51868 7.22185L7.94304 5.52885C8.42298 5.64884 9.97279 5.87082 9.72282 6.8699H9.72241Z" fill="white"/>
</g>
<defs>
<clipPath id="clip0_124_4390">
<rect width="16" height="16" fill="white" transform="translate(-0.00402832)"/>
</clipPath>
</defs>
</svg>
