<svg width="25" height="25" viewBox="0 0 25 25" fill="none" xmlns="http://www.w3.org/2000/svg">
<path d="M21.9656 9.16961V9.23715C21.9656 10.0329 21.9656 10.4317 21.7741 10.7574C21.5826 11.0831 21.2337 11.2765 20.5379 11.6642L19.8042 12.0713C20.3094 10.3614 20.4787 8.52376 20.5407 6.95262L20.5499 6.74813L20.5518 6.70001C21.1542 6.90913 21.4928 7.0655 21.7038 7.35789C21.9656 7.72153 21.9656 8.20453 21.9656 9.16961ZM3.46002 9.16961V9.23715C3.46002 10.0329 3.46002 10.4317 3.65155 10.7574C3.84309 11.0831 4.19192 11.2765 4.88773 11.6642L5.6224 12.0713C5.11627 10.3614 4.94695 8.52376 4.88495 6.95262L4.8757 6.74813L4.87478 6.70001C4.27149 6.90913 3.93284 7.0655 3.72188 7.35789C3.46002 7.72153 3.46002 8.20546 3.46002 9.16961Z" fill="#719DB5"/>
<path fill-rule="evenodd" clip-rule="evenodd" d="M12.7127 3.4683C14.3634 3.4683 15.7226 3.61357 16.7627 3.78937C17.8166 3.96703 18.343 4.05585 18.7835 4.59807C19.2239 5.14029 19.1998 5.726 19.1536 6.89742C18.9944 10.9215 18.1265 15.9467 13.4067 16.3909V19.6609H14.7298C14.9436 19.661 15.1508 19.7352 15.3161 19.8708C15.4814 20.0064 15.5947 20.1951 15.6366 20.4048L15.8124 21.2801H18.2644C18.4484 21.2801 18.625 21.3532 18.7551 21.4834C18.8852 21.6135 18.9583 21.79 18.9583 21.9741C18.9583 22.1581 18.8852 22.3346 18.7551 22.4648C18.625 22.5949 18.4484 22.668 18.2644 22.668H7.16103C6.97698 22.668 6.80047 22.5949 6.67033 22.4648C6.54019 22.3346 6.46707 22.1581 6.46707 21.9741C6.46707 21.79 6.54019 21.6135 6.67033 21.4834C6.80047 21.3532 6.97698 21.2801 7.16103 21.2801H9.61302L9.78883 20.4048C9.83074 20.1951 9.94397 20.0064 10.1093 19.8708C10.2746 19.7352 10.4818 19.661 10.6956 19.6609H12.0188V16.3909C7.29982 15.9467 6.43191 10.9206 6.27276 6.89742C6.22557 5.726 6.20244 5.13937 6.64288 4.59807C7.08238 4.05585 7.60887 3.96703 8.66276 3.78937C10.0015 3.56996 11.3562 3.46257 12.7127 3.4683ZM13.5936 7.35358L13.5029 7.19073C13.1513 6.55876 12.9755 6.24416 12.7127 6.24416C12.4499 6.24416 12.2741 6.55876 11.9225 7.19073L11.8318 7.35358C11.7319 7.53309 11.6819 7.62192 11.6042 7.68114C11.5256 7.74036 11.4284 7.76256 11.2341 7.80605L11.0583 7.84676C10.3755 8.00129 10.034 8.07809 9.9526 8.33902C9.87118 8.60087 10.1043 8.87291 10.5698 9.41698L10.69 9.55762C10.8224 9.71215 10.889 9.78895 10.9186 9.88518C10.9482 9.98141 10.938 10.0841 10.9186 10.2905L10.9001 10.4783C10.8298 11.2046 10.7946 11.5683 11.0065 11.7293C11.2193 11.8903 11.5395 11.7432 12.1788 11.4489L12.3435 11.373C12.5258 11.2898 12.6165 11.2481 12.7127 11.2481C12.8089 11.2481 12.8996 11.2898 13.0819 11.373L13.2466 11.4489C13.886 11.7441 14.2061 11.8903 14.4189 11.7293C14.6317 11.5683 14.5957 11.2046 14.5253 10.4783L14.5068 10.2905C14.4874 10.0841 14.4772 9.98141 14.5068 9.88518C14.5364 9.78987 14.6031 9.71215 14.7354 9.55762L14.8557 9.41698C15.3211 8.87291 15.5542 8.60087 15.4728 8.33902C15.3914 8.07809 15.05 8.00129 14.3671 7.84676L14.1913 7.80605C13.997 7.76256 13.8998 7.74128 13.8212 7.68114C13.7435 7.62192 13.6935 7.53309 13.5936 7.35358Z" fill="#719DB5"/>
</svg>
